<svg width="103" height="99" viewBox="0 0 103 99" fill="none" xmlns="http://www.w3.org/2000/svg">
<g opacity="0.12">
<path d="M51.5 96.2806C78.1484 96.2806 99.7513 75.4527 99.7513 49.7602C99.7513 24.0677 78.1484 3.23979 51.5 3.23979C24.8516 3.23979 3.24872 24.0677 3.24872 49.7602C3.24872 75.4527 24.8516 96.2806 51.5 96.2806Z" fill="white"/>
<path d="M51.5 96.5204C78.2858 96.5204 100 75.5852 100 49.7602C100 23.9353 78.2858 3 51.5 3C24.7142 3 3 23.9353 3 49.7602C3 75.5852 24.7142 96.5204 51.5 96.5204Z" stroke="#707070"/>
</g>
<path d="M6.73083 49.7607C6.73083 73.5991 26.7747 92.924 51.5001 92.924C76.2254 92.924 96.2693 73.5991 96.2693 49.7607C96.2693 25.9223 76.2254 6.59743 51.5001 6.59743C26.7747 6.59743 6.73083 25.9223 6.73083 49.7607Z" fill="black" fill-opacity="0.62"/>
<path d="M4.74108 49.7607C4.74108 74.6586 25.6758 94.8423 51.5001 94.8423C77.3243 94.8423 98.259 74.6586 98.259 49.7607C98.259 24.8628 77.3243 4.67906 51.5001 4.67906C25.6758 4.67906 4.74108 24.8628 4.74108 49.7607Z" stroke="white" stroke-opacity="0.12" stroke-width="8" stroke-linecap="round"/>
<path d="M19.9427 49.8259V49.7597C19.9316 45.7012 20.7234 41.6778 22.2757 37.9052C23.7457 34.3194 25.9084 31.0352 28.6488 28.227C31.3296 25.4667 34.5499 23.2445 38.1245 21.6883C44.9643 18.7215 52.7363 18.4515 59.7799 20.9358C62.9042 22.0463 65.8103 23.6601 68.3746 25.7082C70.9623 27.771 73.1874 30.2234 74.9636 32.9707C75.2919 33.4762 75.6103 33.9989 75.9087 34.5245L76.6773 34.4339C77.2036 34.3715 77.6935 34.3082 78.1696 34.2469C80.4508 33.9509 81.9575 33.7557 82.6465 34.3375C82.7946 34.4795 82.9085 34.6512 82.9798 34.8405C83.0512 35.0297 83.0784 35.2319 83.0594 35.4324C83.0594 36.3551 82.6152 37.7968 81.6198 40.107L79.0212 46.593C77.5204 50.1813 76.4445 51.693 75.3078 51.8105C74.0528 51.9404 72.6714 50.3563 70.71 47.5757L66.5599 41.8882C64.604 39.5085 63.544 38.0486 63.544 37.1527C63.544 36.1959 64.7378 35.8741 67.2414 35.5523C65.2269 32.9533 62.6151 30.8397 59.6111 29.3774C56.607 27.9151 53.2923 27.1437 49.9272 27.124C37.6609 27.124 27.6818 37.2788 27.6818 49.7607C27.6818 62.2425 37.6609 72.3974 49.9272 72.3974C59.8714 72.3974 68.6805 65.6026 71.3522 55.8736C71.5157 55.2579 71.8787 54.7087 72.3884 54.3058C72.8816 53.9131 73.5012 53.6981 74.1408 53.6977H76.153C76.9416 53.7173 77.6901 54.0371 78.2349 54.5873C78.7796 55.1375 79.0763 55.8733 79.06 56.6337C79.0597 56.8793 79.0291 57.124 78.969 57.3627C78.1587 60.593 76.8175 63.6776 74.9964 66.4994C73.2311 69.2418 71.019 71.6921 68.4452 73.7561C65.8953 75.8057 63.0042 77.4246 59.8943 78.5443C52.873 81.0581 45.1096 80.8193 38.2687 77.8792C34.6797 76.3311 31.4434 74.1145 28.7458 71.3567C25.9871 68.5524 23.8054 65.2689 22.3165 61.6805C20.7467 57.9115 19.9409 53.8874 19.9427 49.8259Z" fill="#FF8904"/>
<path d="M38.41 59.0691L46.0406 38.4131H53.7882L61.4487 59.0691V59.352H56.3127L54.5219 54.372H45.3069L43.5166 59.352H38.41V59.0691ZM53.2336 50.4954L51.6487 46.251L50.1519 41.8086H49.6824L48.1856 46.2793L46.6008 50.4954H53.2336Z" fill="#FF8904"/>
</svg>
