<svg width="62" height="62" viewBox="0 0 62 62" fill="none" xmlns="http://www.w3.org/2000/svg">
<g opacity="0.12">
<path d="M30.9999 58.7143C46.3061 58.7143 58.7142 46.3062 58.7142 31C58.7142 15.6938 46.3061 3.28571 30.9999 3.28571C15.6938 3.28571 3.28564 15.6938 3.28564 31C3.28564 46.3062 15.6938 58.7143 30.9999 58.7143Z" fill="white"/>
<path d="M31 58.8571C46.385 58.8571 58.8571 46.3851 58.8571 31C58.8571 15.6149 46.385 3.14285 31 3.14285C15.6149 3.14285 3.14282 15.6149 3.14282 31C3.14282 46.3851 15.6149 58.8571 31 58.8571Z" stroke="#707070"/>
</g>
<path d="M5.28566 31.0003C5.28566 45.2019 16.7983 56.7146 30.9999 56.7146C45.2016 56.7146 56.7142 45.2019 56.7142 31.0003C56.7142 16.7987 45.2016 5.286 30.9999 5.286C16.7983 5.286 5.28566 16.7987 5.28566 31.0003Z" fill="black" fill-opacity="0.62"/>
<path d="M4.14277 31.0003C4.14277 45.8331 16.1671 57.8574 30.9999 57.8574C45.8327 57.8574 57.8571 45.8331 57.8571 31.0003C57.8571 16.1675 45.8327 4.14314 30.9999 4.14314C16.1671 4.14314 4.14277 16.1675 4.14277 31.0003Z" stroke="white" stroke-opacity="0.12" stroke-width="8" stroke-linecap="round"/>
<path d="M35.1786 11.5714C28.0129 11.5714 22.2143 13.6457 22.2143 16.2857V21C15.1429 21.2357 10.4286 23.2157 10.4286 25.7143V30.4286V35.1429V39.8571C10.4286 42.4266 16.2286 44.5714 23.3929 44.5714H23.55C25.249 44.5735 26.9457 44.4475 28.6257 44.1943C29.4767 45.7521 30.7362 47.0485 32.2687 47.9442C33.8012 48.8399 35.5488 49.301 37.3237 49.278C39.5848 49.28 41.7838 48.539 43.5825 47.1691C45.3813 45.7991 46.68 43.876 47.2789 41.6957C47.7692 41.2614 48.0778 40.6581 48.1429 40.0063V16.2857C48.1429 13.6457 42.3429 11.5714 35.1786 11.5714ZM23.3929 23.3571C29.2857 23.3571 34 24.418 34 25.7143C34 27.0106 29.2857 28.0714 23.3929 28.0714C17.5 28.0714 12.7857 27.0106 12.7857 25.7143C12.7857 24.418 17.5 23.3571 23.3929 23.3571ZM23.3929 42.2143C17.0049 42.2143 13.3752 40.5406 12.7857 39.8571V37.9714C15.8158 39.2436 19.0709 39.8929 22.3572 39.8809C22.7186 39.8809 23.0877 39.8731 23.4492 39.8574C24.6641 39.8515 25.8778 39.7832 27.0857 39.6529C27.004 40.4788 27.1032 41.3126 27.3763 42.0963C26.3077 42.1514 25.0977 42.222 23.8643 42.222C23.6992 42.222 23.5343 42.2143 23.3692 42.2143H23.3929ZM27.0934 37.2877C25.8757 37.4307 24.6505 37.5016 23.4243 37.5H23.3929C17.0049 37.5 13.3752 35.8266 12.7857 35.1429V33.1629C15.8723 34.4919 19.1995 35.1712 22.56 35.1586C22.8586 35.1586 23.1494 35.1509 23.44 35.1429C24.9352 35.1415 26.4287 35.0417 27.9109 34.8443C27.4724 35.573 27.1963 36.3877 27.1014 37.2329L27.0934 37.2877ZM23.3929 32.7857C17.0049 32.7857 13.3752 31.1123 12.7857 30.4286V28.3071C15.8723 29.6362 19.1995 30.3155 22.56 30.3029C22.8509 30.3029 23.1414 30.2951 23.432 30.2871C23.6443 30.2951 23.9349 30.3029 24.2334 30.3029C27.6503 30.3088 31.0315 29.6084 34.1649 28.2457L34 29.1086C32.233 29.7053 30.6589 30.7664 29.4429 32.1806C27.5137 32.5915 25.5459 32.7944 23.5734 32.7857H23.3849H23.3929ZM37.3234 46.9286C35.7337 46.9286 34.1797 46.4572 32.8579 45.574C31.5361 44.6908 30.5059 43.4355 29.8976 41.9668C29.2892 40.4981 29.13 38.8819 29.4402 37.3228C29.7503 35.7636 30.5158 34.3314 31.6399 33.2073C32.764 32.0832 34.1962 31.3177 35.7554 31.0076C37.3145 30.6974 38.9306 30.8566 40.3993 31.465C41.868 32.0733 43.1234 33.1035 44.0066 34.4253C44.8898 35.7471 45.3612 37.3011 45.3612 38.8909C45.3612 39.9464 45.1533 40.9916 44.7493 41.9668C44.3454 42.9419 43.7533 43.828 43.007 44.5744C42.2606 45.3208 41.3745 45.9128 40.3993 46.3167C39.4242 46.7207 38.379 46.9286 37.3234 46.9286ZM45.7857 30.4286C45.3662 30.8254 44.8722 31.1351 44.3323 31.34C43.6555 30.76 42.9147 30.2592 42.1243 29.8471C43.4231 29.5084 44.6802 29.0262 45.8723 28.4094L45.7857 30.4286ZM45.7857 25.7143C45.22 26.4451 41.9906 27.93 36.3572 28.0714V25.7143H36.3806C39.672 25.7216 42.9279 25.0336 45.9349 23.6951L45.7857 25.7143ZM45.7857 21C45.1966 21.7777 41.5666 23.3571 35.1786 23.3571H34.6357C31.595 21.7973 28.2246 20.989 24.8072 21H24.5714V18.8786C27.6592 20.2039 30.9856 20.8831 34.3457 20.8743C34.6366 20.8743 34.9272 20.8663 35.2177 20.8586C35.43 20.8666 35.7206 20.8743 36.0114 20.8743C39.4305 20.8772 42.8136 20.1769 45.9506 18.8171L45.7857 21ZM35.1786 18.6429C29.2857 18.6429 24.5714 17.5823 24.5714 16.2857C24.5714 14.9891 29.2857 13.9286 35.1786 13.9286C41.0714 13.9286 45.7857 14.9891 45.7857 16.2857C45.7857 17.5823 41.0714 18.6429 35.1786 18.6429Z" fill="white" fill-opacity="0.7"/>
<path d="M36.4376 32.224C36.5092 32.0826 36.6185 31.9639 36.7535 31.8809C36.8885 31.7979 37.0439 31.754 37.2023 31.754C37.3608 31.754 37.5161 31.7979 37.6511 31.8809C37.7861 31.9639 37.8955 32.0826 37.967 32.224L40.3687 36.9669C40.4349 37.0975 40.4665 37.2429 40.4604 37.3893C40.4544 37.5356 40.411 37.678 40.3343 37.8027C40.2576 37.9275 40.1503 38.0306 40.0225 38.1021C39.8946 38.1736 39.7506 38.2111 39.6042 38.2111H34.8005C34.654 38.2111 34.51 38.1736 34.3822 38.1021C34.2544 38.0306 34.147 37.9275 34.0703 37.8027C33.9937 37.678 33.9502 37.5356 33.9442 37.3893C33.9382 37.2429 33.9697 37.0975 34.0359 36.9669L36.4376 32.224Z" fill="white" fill-opacity="0.7"/>
<path d="M37.9668 45.5577C37.8952 45.6991 37.7859 45.8178 37.6509 45.9008C37.5159 45.9838 37.3605 46.0277 37.2021 46.0277C37.0436 46.0277 36.8883 45.9838 36.7533 45.9008C36.6183 45.8178 36.509 45.6991 36.4374 45.5577L34.0357 40.8149C33.9695 40.6842 33.938 40.5388 33.944 40.3924C33.95 40.2461 33.9934 40.1038 34.0701 39.979C34.1468 39.8542 34.2541 39.7511 34.382 39.6796C34.5098 39.6082 34.6538 39.5706 34.8002 39.5706H39.604C39.7504 39.5706 39.8944 39.6082 40.0222 39.6796C40.15 39.7511 40.2574 39.8542 40.3341 39.979C40.4108 40.1038 40.4542 40.2461 40.4602 40.3924C40.4662 40.5388 40.4347 40.6842 40.3685 40.8149L37.9668 45.5577Z" fill="white" fill-opacity="0.7"/>
</svg>
