<svg width="64" height="64" viewBox="0 0 64 64" fill="none" xmlns="http://www.w3.org/2000/svg">
<g opacity="0.12">
<path d="M31.852 60.5561C47.7049 60.5561 60.5561 47.7049 60.5561 31.852C60.5561 15.9992 47.7049 3.14796 31.852 3.14796C15.9992 3.14796 3.14795 15.9992 3.14795 31.852C3.14795 47.7049 15.9992 60.5561 31.852 60.5561Z" fill="white"/>
<path d="M31.852 60.7041C47.7866 60.7041 60.7041 47.7866 60.7041 31.852C60.7041 15.9175 47.7866 3 31.852 3C15.9175 3 3 15.9175 3 31.852C3 47.7866 15.9175 60.7041 31.852 60.7041Z" stroke="#707070"/>
</g>
<path d="M5.21943 31.8524C5.21943 46.5612 17.1433 58.485 31.8521 58.485C46.5609 58.485 58.4847 46.5612 58.4847 31.8524C58.4847 17.1435 46.5609 5.2197 31.8521 5.2197C17.1433 5.2197 5.21943 17.1435 5.21943 31.8524Z" fill="black" fill-opacity="0.62"/>
<path d="M4.03574 31.8524C4.03574 47.2149 16.4895 59.6687 31.8521 59.6687C47.2146 59.6687 59.6684 47.2149 59.6684 31.8524C59.6684 16.4898 47.2146 4.03603 31.8521 4.03603C16.4895 4.03603 4.03574 16.4898 4.03574 31.8524Z" stroke="white" stroke-opacity="0.12" stroke-width="8" stroke-linecap="round"/>
<path d="M13.079 31.8518C13.0724 29.3475 13.5434 26.865 14.4669 24.5373C15.3414 22.3247 16.6279 20.2983 18.2582 18.5656C19.8529 16.8624 21.7686 15.4913 23.8951 14.5311C27.964 12.7005 32.5875 12.5339 36.7776 14.0668C38.6362 14.752 40.3651 15.7477 41.8905 17.0115C43.4299 18.2843 44.7536 19.7975 45.8102 21.4925C46.0075 21.807 46.1949 22.1266 46.3725 22.4513L46.8297 22.3951C50.3265 21.9663 51.6511 21.3671 49.7693 25.8952L48.2234 29.8972C46.4689 34.2472 45.6155 33.938 43.2792 30.5039L40.8104 26.9946C38.2981 23.8265 38.4146 23.4589 41.2149 23.0867C40.0127 21.4871 38.4583 20.186 36.6721 19.2841C34.8859 18.3822 32.916 17.9039 30.9152 17.8862C23.6181 17.8862 17.6817 24.152 17.6817 31.8535C17.6817 39.5551 23.6184 45.8209 30.9152 45.8209C36.8312 45.8209 42.0713 41.6283 43.6607 35.6253C43.758 35.2455 43.9739 34.9066 44.2771 34.658C44.5705 34.4157 44.9391 34.283 45.3196 34.2827H46.5178C46.9869 34.2948 47.4322 34.4922 47.7563 34.8317C48.0803 35.1711 48.2568 35.6251 48.2471 36.0943C48.2469 36.2459 48.2288 36.3969 48.193 36.5441C47.7109 38.5373 46.9131 40.4406 45.8298 42.1817C44.7796 43.8738 43.4636 45.3857 41.9325 46.6592C40.4156 47.9239 38.6958 48.9228 36.8457 49.6137C32.6688 51.1648 28.0504 51.0174 23.9809 49.2032C21.8459 48.248 19.9206 46.8803 18.3159 45.1787C16.6748 43.4484 15.3769 41.4225 14.4911 39.2083C13.5574 36.8831 13.078 34.4004 13.079 31.8947V31.8518Z" fill="white" fill-opacity="0.7"/>
<path d="M24.0649 37.5958L28.6043 24.8506H33.2133L37.7704 37.5958V37.7704H34.715L33.6497 34.6976H28.1678L27.1028 37.7704H24.0649V37.5958ZM32.8833 32.3057L31.9405 29.6868L31.0501 26.9457H30.7707L29.8803 29.7043L28.9375 32.3057H32.8833Z" fill="white" fill-opacity="0.7"/>
</svg>
