<svg width="25" height="27" viewBox="0 0 25 27" fill="none" xmlns="http://www.w3.org/2000/svg">
<path d="M13.2162 0.148651H11.7838C5.35431 0.148651 0.144321 6.12759 0.144321 13.5C0.144321 20.8724 5.35431 26.8514 11.7838 26.8514H13.2162C19.6457 26.8514 24.8557 20.8724 24.8557 13.5C24.8557 6.12759 19.6457 0.148651 13.2162 0.148651Z" fill="#CD7D0A"/>
<path d="M13.2162 27H11.7838C5.28576 27 0 20.943 0 13.5C0 6.05698 5.28576 0 11.7838 0H13.2162C19.7142 0 25 6.05698 25 13.5C25 20.943 19.7142 27 13.2162 27ZM11.7838 0.297275C5.44451 0.297275 0.288642 6.22048 0.288642 13.5C0.288642 20.7795 5.44451 26.7027 11.7838 26.7027H13.2162C19.5555 26.7027 24.7114 20.7795 24.7114 13.5C24.7114 6.22048 19.5555 0.297275 13.2162 0.297275H11.7838Z" fill="#AB6004"/>
<path d="M21.778 22.5409C23.6867 20.1627 24.8557 16.9893 24.8557 13.5C24.8557 13.3997 24.8521 13.2993 24.8485 13.1953H0.151537C0.151537 13.2956 0.144321 13.3959 0.144321 13.5C0.144321 16.9893 1.31332 20.1627 3.22197 22.5409H21.778Z" fill="url(#paint0_linear_2_115)"/>
<path d="M11.7838 26.8514C18.2121 26.8514 23.4233 20.8738 23.4233 13.5C23.4233 6.12626 18.2121 0.148651 11.7838 0.148651C5.3555 0.148651 0.144321 6.12626 0.144321 13.5C0.144321 20.8738 5.3555 26.8514 11.7838 26.8514Z" fill="#F2B829"/>
<path d="M11.7838 27C5.28576 27 0 20.943 0 13.5C0 6.05698 5.28576 0 11.7838 0C18.2819 0 23.5676 6.05698 23.5676 13.5C23.5676 20.943 18.2819 27 11.7838 27ZM11.7838 0.297275C5.44451 0.297275 0.288642 6.22048 0.288642 13.5C0.288642 20.7795 5.44451 26.7027 11.7838 26.7027C18.1231 26.7027 23.279 20.7795 23.279 13.5C23.279 6.22048 18.1231 0.297275 11.7838 0.297275Z" fill="#FFED8B"/>
<path d="M10.7772 11.1776C10.806 11.1701 10.8313 11.1627 10.8602 11.1553C11.0478 11.0995 11.239 11.0438 11.423 10.988C15.1248 9.89927 18.9133 9.2527 22.7269 8.95171C21.1069 3.81628 16.8206 0.148651 11.7838 0.148651C5.35431 0.148651 0.144321 6.12759 0.144321 13.5C0.144321 14.154 0.187618 14.7969 0.266994 15.4249C3.4637 13.396 7.29543 12.2069 10.7772 11.1776Z" fill="url(#paint1_linear_2_115)"/>
<path d="M11.7838 24.4434C17.0524 24.4434 21.3234 19.5439 21.3234 13.5C21.3234 7.45612 17.0524 2.55658 11.7838 2.55658C6.51522 2.55658 2.24419 7.45612 2.24419 13.5C2.24419 19.5439 6.51522 24.4434 11.7838 24.4434Z" fill="url(#paint2_linear_2_115)"/>
<path d="M12.0508 23.8786C17.0464 23.8786 21.0961 19.232 21.0961 13.5C21.0961 7.76806 17.0464 3.1214 12.0508 3.1214C7.05521 3.1214 3.00549 7.76806 3.00549 13.5C3.00549 19.232 7.05521 23.8786 12.0508 23.8786Z" fill="#F2B829"/>
<path d="M6.5972 13.2931C9.07952 12.5091 11.5943 11.7808 14.1416 11.2531C16.2342 10.8183 18.464 10.4319 20.6938 10.3241C19.5572 6.08423 16.1152 3 12.0453 3C7.0482 3 3 7.64492 3 13.3786C3 13.7874 3.02165 14.1924 3.06494 14.59C4.22673 14.1218 5.39934 13.6796 6.60081 13.2969L6.5972 13.2931Z" fill="url(#paint3_linear_2_115)"/>
<defs>
<linearGradient id="paint0_linear_2_115" x1="13.5626" y1="22.827" x2="12.2319" y2="12.2163" gradientUnits="userSpaceOnUse">
<stop offset="0.2" stop-color="#B15700"/>
<stop offset="1" stop-color="#B15700"/>
</linearGradient>
<linearGradient id="paint1_linear_2_115" x1="8.40309" y1="4.3105" x2="15.9765" y2="22.3664" gradientUnits="userSpaceOnUse">
<stop offset="0.2" stop-color="#FFCF51"/>
<stop offset="0.62" stop-color="#FFCF00"/>
</linearGradient>
<linearGradient id="paint2_linear_2_115" x1="11.34" y1="10.9546" x2="13.2308" y2="21.1987" gradientUnits="userSpaceOnUse">
<stop stop-color="#CB7B11"/>
<stop offset="0.36" stop-color="#DD930C"/>
<stop offset="0.66" stop-color="#E69A0A"/>
<stop offset="0.83" stop-color="#F3BC32"/>
<stop offset="1" stop-color="#FFDA54"/>
</linearGradient>
<linearGradient id="paint3_linear_2_115" x1="7.91413" y1="3.54624" x2="17.0908" y2="22.5759" gradientUnits="userSpaceOnUse">
<stop offset="0.2" stop-color="#FFCF51"/>
<stop offset="0.62" stop-color="#FFCF00"/>
</linearGradient>
</defs>
</svg>
